<?xml version="1.0" standalone="no"?>
<!DOCTYPE svg PUBLIC "-//W3C//DTD SVG 20010904//EN"
 "http://www.w3.org/TR/2001/REC-SVG-20010904/DTD/svg10.dtd">
<svg version="1.0" xmlns="http://www.w3.org/2000/svg"
 width="70.000000pt" height="70.000000pt" viewBox="0 0 70.000000 70.000000"
 preserveAspectRatio="xMidYMid meet">
<metadata>
//
</metadata>
<g transform="translate(0.000000,70.000000) scale(0.100000,-0.100000)"
fill="#000000" stroke="none">
<path d="M230 689 c0 -6 -4 -8 -9 -5 -27 17 -106 -54 -146 -131 -11 -21 -24
-41 -28 -44 -5 -4 -17 -37 -27 -74 -18 -66 -20 -151 -5 -218 4 -19 2 -26 -5
-22 -5 3 -10 -1 -10 -9 0 -9 7 -16 15 -16 8 0 23 -9 32 -19 13 -16 20 -17 40
-8 19 8 27 7 46 -10 12 -11 28 -22 36 -25 15 -4 9 -12 -38 -50 -23 -20 -28
-44 -8 -47 6 -1 44 -4 84 -7 64 -4 73 -2 86 16 15 22 41 19 51 -6 4 -10 24
-13 78 -12 68 2 98 10 98 28 0 12 -34 46 -52 53 -11 4 -15 12 -12 22 3 8 10
12 15 9 5 -3 9 0 9 5 0 6 7 11 15 11 8 0 33 16 54 35 36 33 40 34 50 18 10
-17 12 -16 30 7 16 20 19 39 17 105 -1 44 -5 85 -9 91 -9 16 17 36 37 28 9 -3
16 -1 16 5 0 18 -4 26 -12 23 -5 -1 -8 4 -8 12 0 8 -4 16 -9 18 -5 2 -11 22
-13 44 -3 23 -12 53 -21 68 -9 14 -17 38 -17 54 0 68 -84 78 -108 12 -8 -21
-9 -21 -26 -5 -29 29 -107 53 -178 53 -38 0 -68 -4 -68 -9z"/>
</g>
</svg>
